# xmcd
#
# Track frame offsets: 
#        150
#        15335
#        27095
#        38660
#        49202
#        63045
#        75642
#        87675
#        101742
#        112780
#        123145
#        136100
#        153700
#        165527
#        178277
#        194897
#        212037
#        225845
#        239337
#        253017
#        282115
#        296170
#
# Disc length: 4118 seconds
#
# Revision: 4
# Processed by: cddbd v1.5.2PL0 Copyright (c) Steve Scherf et al.
# Submitted via: ExactAudioCopy v0.99pb4
#
DISCID=2b101416
DTITLE=Various Artist - Beyond Nashville 1
DYEAR=2001
DGENRE=Country
TTITLE0=Jimmie Rodgers - Looking For A New Mama
TTITLE1=Carter Family - When Our Lord Shall Come Again
TTITLE2=Leadbelly - Rock Island Line
TTITLE3=Bob Wills and The Texas Playboys - Bubbles In My Beer
TTITLE4=Bill Monroe and His Bluegrass Boys - Blue Moon Of Kentucky
TTITLE5=Woody Guthrie - I Ain't Got No Home
TTITLE6=Hank Williams Snr. - Long Gone Lonesome Blues
TTITLE7=Lefty Frizzell - Always Late (With Your Kisses)
TTITLE8=Little Junior Parker and His Blue Flames - Mystery Train
TTITLE9=George Jones - Why Baby Why?
TTITLE10=Carl Perkins - Put Your Cat Clothes On
TTITLE11=Johnny Cash With The Carter Family - Were You There (When The
TTITLE11=y Crucified My Lord)?
TTITLE12=Jim and Jesse and The Virginia Boys - Chicken Reel
TTITLE13=Merle Haggard - The Bottle Let Me Down
TTITLE14=Byrds - I Am A Pilgrim
TTITLE15=Taj Mahal - Little Red Hen Blues
TTITLE16=Band - Long Black Veil
TTITLE17=Flying Burrito Brothers - Lazy Days
TTITLE18=New Riders Of A Purple Sage - Glendale Train
TTITLE19=Gram Parsons - Cash On The Barrelhead and Hickory Wind
TTITLE20=Doug Sahm - Nitty Gritty
TTITLE21=Flatlanders - Dallas
EXTD=(c)2001 Union Square Music UK\nupc 698458220523, Disc 1 of 2
EXTT0=
EXTT1=
EXTT2=
EXTT3=
EXTT4=
EXTT5=
EXTT6=
EXTT7=
EXTT8=
EXTT9=
EXTT10=
EXTT11=
EXTT12=
EXTT13=
EXTT14=
EXTT15=
EXTT16=
EXTT17=
EXTT18=
EXTT19=
EXTT20=
EXTT21=
PLAYORDER=
